<?xml version="1.0" encoding="iso-8859-1"?>
<!-- Generator: Adobe Illustrator 19.0.0, SVG Export Plug-In . SVG Version: 6.00 Build 0)  -->
<svg xmlns="http://www.w3.org/2000/svg" xmlns:xlink="http://www.w3.org/1999/xlink" version="1.1" id="Capa_1" x="0px" y="0px" viewBox="0 0 483.52 483.52" style="enable-background:new 0 0 483.52 483.52;" xml:space="preserve" width="512px" height="512px">
<g>
	<g>
		<rect x="230.932" y="204" width="16" height="16" fill="#000333"/>
	</g>
</g>
<g>
	<g>
		<path d="M262.932,247.312l18.344,18.344c3.124,3.123,8.188,3.123,11.312,0l2.344-2.344l26.344,26.344    c3.124,3.123,8.188,3.123,11.312,0l10.344-10.344l10.344,10.344c3.124,3.123,8.188,3.123,11.312,0l8-8l-11.312-11.312    l-2.344,2.344L354.244,268l10.344-10.344c3.123-3.124,3.123-8.188,0-11.312L338.244,220l2.344-2.344    c3.123-3.124,3.123-8.188,0-11.312L306.244,172l4.688-4.688l18.344,18.344l11.312-11.312l-40-40l-11.312,11.312L299.62,156    l-4.688,4.688L258.7,124.456l6.096-6.024c3.141-3.106,3.169-8.17,0.064-11.312L161.484,2.496    c-3.097-3.15-8.162-3.193-11.312-0.096l-7.32,7.2C123.886-3.64,97.779,1.002,84.539,19.968    c-9.947,14.249-10.061,33.16-0.287,47.528l-6.504,6.4c-3.141,3.106-3.169,8.17-0.064,11.312L181.052,189.92    c3.104,3.143,8.168,3.175,11.312,0.072l6.664-6.584l10.136,10.136c-6.553,7.257-10.197,16.678-10.232,26.456v16    c0,4.418,3.582,8,8,8h8v22.152l-103.2,210.328l14.352,7.04l42.448-86.544l62.4,20.8V480h16v-62.232l62.4-20.8l42.4,86.552    l14.4-7.04l-103.2-210.328V247.312z M262.932,228h-48v-8c0-13.255,10.745-24,24-24s24,10.745,24,24V228z M347.62,252    l-20.688,20.688L306.244,252l20.688-20.688L347.62,252z M118.773,18.122c4.313-0.008,8.559,1.064,12.351,3.118L96.02,55.928    c-1.964-3.671-3.004-7.765-3.032-11.928C92.962,29.733,104.507,18.147,118.773,18.122z M193.284,166.384    c-0.177,0.235-0.34,0.481-0.488,0.736l-5.984,5.912L94.684,79.744l61.048-60.32l92.128,93.248l-4,4    c-0.962,0.398-1.837,0.979-2.576,1.712L193.284,166.384z M210.412,172.16l36.904-36.464L323.62,212l-2.344,2.344l-32,32    l-2.344,2.344l-9.008-9.008c0.636-1.124,0.982-2.389,1.008-3.68v-16c-0.026-22.08-17.92-39.974-40-40    c-5.828,0.025-11.579,1.339-16.84,3.848L210.412,172.16z M230.932,400.896l-55.256-18.416L227.916,276h3.016V400.896z     M230.932,260v-16h16v16H230.932z M302.188,382.48l-55.256,18.416V276h3.016L302.188,382.48z" fill="#000333"/>
	</g>
</g>
<g>
	<g>
		<polygon points="38.212,271.408 38.26,263.4 22.26,263.312 22.212,271.312 14.204,271.264 14.108,287.264 22.116,287.312     22.068,295.312 38.068,295.4 38.116,287.408 46.108,287.456 46.204,271.456   " fill="#000333"/>
	</g>
</g>
<g>
	<g>
		<path d="M322.932,0c-15.464,0-28,12.536-28,28s12.536,28,28,28c15.464,0,28-12.536,28-28S338.396,0,322.932,0z M322.932,40    c-6.627,0-12-5.373-12-12s5.373-12,12-12c6.627,0,12,5.373,12,12S329.559,40,322.932,40z" fill="#000333"/>
	</g>
</g>
<g>
	<g>
		<path d="M70.98,143.6h-0.152c-13.255-0.038-24.03,10.677-24.068,23.932s10.677,24.03,23.932,24.068h0.136    c13.255,0.042,24.034-10.669,24.076-23.924C94.946,154.421,84.235,143.642,70.98,143.6z M70.828,175.6H70.78    c-4.418-0.013-7.989-3.606-7.976-8.024s3.606-7.989,8.024-7.976h0.056c4.418,0.016,7.987,3.61,7.972,8.028    S75.246,175.615,70.828,175.6z" fill="#000333"/>
	</g>
</g>
<g>
	<g>
		<polygon points="476.588,125.656 465.276,114.344 458.932,120.688 452.588,114.344 441.276,125.656 447.62,132 441.276,138.344     452.588,149.656 458.932,143.312 465.276,149.656 476.588,138.344 470.244,132   " fill="#000333"/>
	</g>
</g>
<g>
	<g>
		<rect x="6.932" y="16" width="16" height="16" fill="#000333"/>
	</g>
</g>
<g>
	<g>
		<rect x="126.399" y="231.983" transform="matrix(0.0059 -1 1 0.0059 -106.3679 372.9731)" width="16" height="16" fill="#000333"/>
	</g>
</g>
<g>
	<g>
		<rect x="422.932" y="8" width="16" height="16" fill="#000333"/>
	</g>
</g>
<g>
	<g>
		<rect x="422.932" y="248" width="16" height="16" fill="#000333"/>
	</g>
</g>
<g>
</g>
<g>
</g>
<g>
</g>
<g>
</g>
<g>
</g>
<g>
</g>
<g>
</g>
<g>
</g>
<g>
</g>
<g>
</g>
<g>
</g>
<g>
</g>
<g>
</g>
<g>
</g>
<g>
</g>
</svg>
